<?xml version="1.0" encoding="iso-8859-1"?>
<!-- Generator: Adobe Illustrator 19.0.0, SVG Export Plug-In . SVG Version: 6.00 Build 0)  -->
<svg version="1.1" id="Layer_1" xmlns="http://www.w3.org/2000/svg" xmlns:xlink="http://www.w3.org/1999/xlink" x="0px" y="0px"
	 viewBox="0 0 512 512" style="enable-background:new 0 0 512 512;" xml:space="preserve">
<polygon style="fill:#EFE7E4;" points="37.432,75.499 37.432,136.23 37.432,359.122 72.948,359.122 186.364,359.122 
	297.286,359.122 474.568,359.122 474.568,75.499 "/>
<rect x="454.557" y="75.502" style="fill:#D8D1D0;" width="20.011" height="283.624"/>
<g>
	<rect x="7.504" y="40.505" style="fill:#546F7A;" width="496.99" height="34.995"/>
	<path style="fill:#546F7A;" d="M72.948,359.122H7.504v34.995h32.874C48.229,380.168,59.513,368.166,72.948,359.122z"/>
	<path style="fill:#546F7A;" d="M186.364,359.122c13.434,9.044,24.718,21.046,32.57,34.995h285.561v-34.995H186.364z"/>
</g>
<g>
	<rect x="484.483" y="40.505" style="fill:#465A65;" width="20.011" height="34.995"/>
	<rect x="484.483" y="359.126" style="fill:#465A65;" width="20.011" height="34.995"/>
</g>
<path style="fill:#68B9D8;" d="M129.656,471.497H28.41v-32.506c0-53.428,47.822-97.164,101.246-97.895
	c53.424,0.73,101.246,44.466,101.246,97.895v32.506H129.656z"/>
<path style="fill:#3695B2;" d="M129.656,341.096c-3.361,0.046-6.7,0.263-10.005,0.641c49.246,5.632,91.241,47.187,91.241,97.254
	v32.506h20.011v-32.506C230.901,385.563,183.079,341.828,129.656,341.096z"/>
<path style="fill:#FFC89F;" d="M129.656,341.179L129.656,341.179c26.612,0,48.386-21.774,48.386-48.386v-41.637
	c0-26.612-21.774-48.386-48.386-48.386l0,0c-26.612,0-48.386,21.774-48.386,48.386v41.637
	C81.27,319.405,103.044,341.179,129.656,341.179z"/>
<path style="fill:#F7B081;" d="M129.656,202.77L129.656,202.77c-3.428,0-6.774,0.367-10.005,1.054
	c21.853,4.643,38.381,24.148,38.381,47.332v41.638c0,23.184-16.527,42.689-38.381,47.332c3.232,0.686,6.578,1.054,10.005,1.054l0,0
	c26.612,0,48.386-21.774,48.386-48.386v-41.638C178.042,224.544,156.269,202.77,129.656,202.77z"/>
<path style="fill:#D3333C;" d="M141.278,369.755h-11.622h-11.621l-12.997-25.252c7.958-2.112,16.22-3.291,24.619-3.406
	c8.4,0.115,16.661,1.295,24.619,3.406L141.278,369.755z"/>
<path style="fill:#7F1B20;" d="M140.662,341.869l-14.393,27.885h3.386h11.622l12.997-25.252
	C149.823,343.321,145.275,342.444,140.662,341.869z"/>
<polygon style="fill:#F2464F;" points="129.656,451.224 104.558,428.253 118.034,369.755 129.656,369.755 141.278,369.755 
	154.754,428.253 "/>
<polygon style="fill:#D3333C;" points="141.278,369.755 129.656,369.755 126.27,369.755 139.746,428.253 122.152,444.356 
	129.656,451.224 154.754,428.253 "/>
<path d="M504.496,83.003c4.144,0,7.504-3.36,7.504-7.504V40.504c0-4.144-3.36-7.504-7.504-7.504H7.504C3.36,33,0,36.36,0,40.504
	v34.995c0,4.144,3.36,7.504,7.504,7.504h22.424v268.614H7.504c-4.144,0-7.504,3.36-7.504,7.504v34.995
	c0,4.144,3.36,7.504,7.504,7.504h20.917c-4.839,11.697-7.515,24.316-7.515,37.37v32.506c0,4.144,3.36,7.504,7.504,7.504h202.491
	c4.144,0,7.504-3.36,7.504-7.504V438.99c0-13.054-2.676-25.673-7.515-37.37h156.274c4.144,0,7.504-3.36,7.504-7.504
	s-3.36-7.504-7.504-7.504H223.213c-0.192-0.31-0.395-0.614-0.591-0.923c-0.175-0.277-0.353-0.552-0.531-0.828
	c-0.291-0.449-0.581-0.898-0.879-1.344c-0.474-0.711-0.957-1.416-1.448-2.116c-0.025-0.035-0.049-0.071-0.074-0.107
	c-3.671-5.221-7.815-10.129-12.361-14.67h267.239h22.424v19.987h-84.814c-4.144,0-7.504,3.36-7.504,7.504s3.36,7.504,7.504,7.504
	h92.318c4.144,0,7.504-3.36,7.504-7.504V359.12c0-4.144-3.36-7.504-7.504-7.504h-22.424V83.003H504.496z M15.008,386.613v-19.987
	h22.424h14.55c-4.546,4.541-8.692,9.45-12.363,14.673c-0.018,0.026-0.036,0.053-0.054,0.079c-0.498,0.709-0.987,1.425-1.467,2.145
	c-0.295,0.441-0.582,0.885-0.87,1.331c-0.181,0.281-0.362,0.561-0.54,0.843c-0.194,0.306-0.396,0.608-0.587,0.917L15.008,386.613
	L15.008,386.613z M212.395,397.798c0.108,0.192,0.235,0.367,0.358,0.547c6.955,12.562,10.645,26.415,10.645,40.646v25.002H35.915
	v-25.002c0-14.229,3.688-28.081,10.642-40.641c0.124-0.181,0.253-0.359,0.361-0.552c4.881-8.67,11.276-16.629,18.826-23.503
	c0.156-0.142,0.312-0.284,0.469-0.424c1.219-1.096,2.468-2.162,3.746-3.2c0.123-0.1,0.243-0.203,0.367-0.303
	c0.59-0.475,1.192-0.941,1.794-1.403c0.485-0.371,0.975-0.736,1.467-1.099c0.569-0.42,1.147-0.831,1.725-1.241
	c0.13-0.092,0.257-0.188,0.388-0.279c7.885-5.498,16.522-9.818,25.543-12.823l6.744,13.102l2.121,4.12l-12.86,55.822
	c-0.607,2.635,0.251,5.394,2.246,7.22l25.099,22.97c1.434,1.313,3.25,1.968,5.066,1.968c1.816,0,3.632-0.656,5.067-1.968
	l25.099-22.97c1.995-1.826,2.854-4.585,2.246-7.22l-12.86-55.822l2.121-4.12l6.744-13.102c9.029,3.008,17.673,7.333,25.564,12.838
	c0.124,0.087,0.244,0.177,0.368,0.264c0.57,0.403,1.139,0.807,1.699,1.222c0.503,0.37,1.005,0.744,1.501,1.125
	c0.597,0.458,1.192,0.919,1.777,1.39c0.146,0.117,0.288,0.239,0.433,0.357c1.254,1.021,2.481,2.067,3.679,3.144
	c0.162,0.145,0.323,0.292,0.484,0.438C201.123,381.174,207.516,389.13,212.395,397.798z M124.006,377.259h11.3l11.153,48.414
	l-16.803,15.379l-16.803-15.379L124.006,377.259z M116.204,349.803c1.43-0.233,2.864-0.43,4.3-0.596
	c0.203-0.023,0.406-0.043,0.608-0.065c1.158-0.126,2.316-0.227,3.477-0.309c0.323-0.023,0.646-0.049,0.97-0.068
	c0.947-0.057,1.894-0.085,2.842-0.112c0.419,0.009,0.834,0.032,1.256,0.032l0,0c0.421,0,0.836-0.022,1.255-0.032
	c0.948,0.027,1.895,0.056,2.842,0.113c0.323,0.019,0.645,0.045,0.969,0.068c1.161,0.082,2.321,0.183,3.479,0.309
	c0.202,0.022,0.404,0.041,0.606,0.065c1.437,0.166,2.872,0.363,4.301,0.596l-0.935,1.815l-5.473,10.633h-14.09l-5.473-10.633
	L116.204,349.803z M131.297,333.634c-0.458-0.013-0.915-0.029-1.375-0.036c-0.054-0.001-0.109-0.004-0.163-0.005
	c-0.068-0.001-0.138-0.001-0.206,0c-0.054,0.001-0.109,0.004-0.163,0.005c-0.459,0.007-0.917,0.023-1.375,0.036
	c-21.784-0.865-39.24-18.848-39.24-40.84v-21.131c36.624-3.096,50.194-28.243,50.194-28.243s8.845,23.34,31.569,27.814v21.561
	C170.538,314.785,153.08,332.769,131.297,333.634z M467.064,351.618H188.744c-8.406-5.439-17.583-9.814-27.302-12.89
	c14.551-10.1,24.104-26.919,24.104-45.934v-41.637c0-1.731-0.09-3.44-0.245-5.131h13.2v65.55c0,4.144,3.36,7.504,7.504,7.504
	c4.144,0,7.504-3.36,7.504-7.504v-65.55h83.851l21.623,46.432c1.232,2.646,3.886,4.336,6.802,4.336c0.018,0,0.036,0,0.054,0
	c2.938-0.021,5.592-1.754,6.794-4.434l20.775-46.334h11.086c-0.487,2.4,0.203,4.991,2.076,6.841
	c1.462,1.444,3.368,2.164,5.272,2.164c1.937,0,3.872-0.745,5.34-2.231l8.892-9.005c2.886-2.923,2.886-7.622,0-10.545l-8.892-9.004
	c-2.912-2.95-7.662-2.98-10.612-0.067c-1.873,1.849-2.564,4.439-2.076,6.84h-57.567l-22.933-49.248
	c-1.129-2.424-3.463-4.065-6.127-4.306c-2.668-0.241-5.254,0.955-6.8,3.138l-5.872,8.294l-14.049-30.773
	c-1.202-2.631-3.808-4.337-6.7-4.386c-2.896-0.028-5.554,1.569-6.844,4.158l-24.093,48.382v-76.123
	c0.495,0.1,0.998,0.154,1.501,0.154c1.937,0,3.872-0.745,5.34-2.232c2.912-2.949,2.882-7.7-0.067-10.612l-9.005-8.892
	c-2.923-2.886-7.622-2.886-10.545,0l-9.005,8.892c-2.949,2.913-2.979,7.663-0.067,10.612c1.85,1.873,4.44,2.564,6.841,2.076v100.866
	h-15.43c-0.426,0-0.841,0.044-1.249,0.112c-8.071-20.951-28.404-35.863-52.165-35.863c-30.818,0-55.889,25.073-55.889,55.89v41.637
	c0,19.015,9.553,35.833,24.104,45.934c-9.72,3.076-18.897,7.451-27.302,12.89H44.936V83.003H98.02c4.144,0,7.504-3.36,7.504-7.504
	s-3.36-7.504-7.504-7.504H37.432H15.008V48.008h481.984v19.987h-22.424H123.034c-4.144,0-7.504,3.36-7.504,7.504
	s3.36,7.504,7.504,7.504h344.03V351.618z M217.955,231.017l26.07-52.353l12.931,28.327c1.115,2.442,3.45,4.103,6.123,4.354
	c2.666,0.253,5.277-0.944,6.828-3.135l5.937-8.386l14.526,31.193h-72.415V231.017z M313.915,246.026h23.044l-11.303,25.211
	L313.915,246.026z"/>
<g>
</g>
<g>
</g>
<g>
</g>
<g>
</g>
<g>
</g>
<g>
</g>
<g>
</g>
<g>
</g>
<g>
</g>
<g>
</g>
<g>
</g>
<g>
</g>
<g>
</g>
<g>
</g>
<g>
</g>
</svg>
