<?xml version="1.0" encoding="iso-8859-1"?>
<!-- Generator: Adobe Illustrator 19.0.0, SVG Export Plug-In . SVG Version: 6.00 Build 0)  -->
<svg version="1.1" id="Layer_1" xmlns="http://www.w3.org/2000/svg" xmlns:xlink="http://www.w3.org/1999/xlink" x="0px" y="0px"
	 viewBox="0 0 512 512" style="enable-background:new 0 0 512 512;" xml:space="preserve">
<path style="fill:#E89330;" d="M256,289.694l-37.275,107.068L256,503.83c59.132,0,107.068-47.936,107.068-107.068
	S315.132,289.694,256,289.694z"/>
<path style="fill:#FFBE35;" d="M148.932,396.762c0,59.132,47.936,107.068,107.068,107.068V289.694
	C196.868,289.694,148.932,337.63,148.932,396.762z"/>
<path style="fill:#FFDB8A;" d="M256,322.375v148.774c41.116,0,74.387-33.271,74.387-74.387S297.116,322.375,256,322.375z"/>
<path style="fill:#FFEAB5;" d="M256,322.375c-41.117,0-74.387,33.271-74.387,74.387c0,41.117,33.271,74.387,74.387,74.387
	c28.15,0,50.928-33.271,50.928-74.387S284.15,322.375,256,322.375z"/>
<path style="fill:#27467A;" d="M428.609,8.17l-24.26,54.468l64.73-21.787c1.895-3.519,3.105-7.517,3.105-10.894V8.17H428.609z"/>
<g>
	<path style="fill:#2F5E88;" d="M39.816,8.17v21.787c0,3.377,1.209,7.375,3.105,10.894L256,73.532l170.136-32.681
		c1.503-3.519,2.473-7.517,2.473-10.894V8.17H39.816z"/>
	<path style="fill:#2F5E88;" d="M426.136,40.851L261.991,181.139l69.719-21.787c2.342-5.305,5.785-10.229,9.586-13.29L463.698,47.67
		c2.037-1.634,3.911-4.085,5.381-6.819H426.136z"/>
</g>
<path style="fill:#367596;" d="M42.921,40.851c1.471,2.734,3.344,5.185,5.381,6.819l122.401,98.391
	c3.802,3.061,7.244,7.985,9.586,13.29L256,192.033l60.46-32.681c1.863-5.305,4.608-10.229,7.647-13.29l97.727-98.391
	c1.623-1.634,3.126-4.085,4.303-6.819H42.921z"/>
<path style="fill:#27467A;" d="M316.46,159.352h15.251c-1.961,4.455-3.159,9.172-3.159,13.279v84.382h-14.619l-32.681-73.488
	L316.46,159.352z"/>
<path style="fill:#2F5E88;" d="M180.289,159.352c1.961,4.455,3.159,9.172,3.159,13.279v84.382h130.484v-84.382
	c0-4.107,0.959-8.824,2.527-13.279H180.289z"/>
<path d="M255.974,420.183c-3.391,0-6.151-2.759-6.151-6.151c0-4.513-3.657-8.17-8.17-8.17c-4.513,0-8.17,3.657-8.17,8.17
	c0,9.518,5.951,17.653,14.321,20.932v3.503c0,4.513,3.657,8.171,8.169,8.171c0.001,0,0.001,0,0.001,0c4.512,0,8.17-3.657,8.17-8.169
	v-3.504c8.37-3.278,14.322-11.414,14.322-20.933c0-15.754-12.828-21.774-18.995-24.668c-7.532-3.534-9.595-5.656-9.595-9.874
	c0-3.391,2.759-6.151,6.151-6.151c3.391,0,6.151,2.759,6.151,6.151c0,4.513,3.657,8.17,8.17,8.17c4.513,0,8.17-3.657,8.17-8.17
	c0-9.518-5.951-17.653-14.321-20.932v-3.502c0-4.513-3.657-8.171-8.169-8.171c-0.001,0-0.001,0-0.001,0
	c-4.512,0-8.17,3.657-8.17,8.169v3.504c-8.37,3.279-14.322,11.414-14.322,20.933c0,15.754,12.828,21.774,18.995,24.668
	c7.532,3.534,9.595,5.656,9.595,9.873C262.124,417.424,259.365,420.183,255.974,420.183z"/>
<path d="M256,281.524c-63.542,0-115.238,51.696-115.238,115.238S192.458,512,256,512s115.238-51.696,115.238-115.238
	S319.542,281.524,256,281.524z M256,495.66c-54.533,0-98.898-44.365-98.898-98.898c0-54.533,44.365-98.898,98.898-98.898
	s98.898,44.365,98.898,98.898S310.533,495.66,256,495.66z"/>
<path d="M256,314.205c-18.832,0-37.264,6.536-51.899,18.406c-14.411,11.688-24.579,28.03-28.627,46.017
	c-0.991,4.402,1.773,8.775,6.176,9.765c4.4,0.991,8.775-1.773,9.765-6.176c6.741-29.94,33.903-51.672,64.586-51.672
	c36.512,0,66.217,29.706,66.217,66.217S292.512,462.979,256,462.979c-30.684,0-57.846-21.731-64.585-51.672
	c-0.991-4.401-5.356-7.167-9.766-6.176c-4.402,0.99-7.167,5.363-6.177,9.765c4.05,17.988,14.217,34.33,28.628,46.017
	c14.636,11.87,33.068,18.406,51.899,18.406c45.522,0,82.557-37.035,82.557-82.557S301.522,314.205,256,314.205z"/>
<path d="M472.187,0H39.813c-4.513,0-8.17,3.657-8.17,8.17v21.787c0,8.443,4.963,18.798,11.544,24.086l122.402,98.382
	c5.068,4.074,9.684,13.706,9.684,20.21v84.378c0,4.513,3.657,8.17,8.17,8.17h145.115c4.512,0,8.17-3.657,8.17-8.17v-84.378
	c0-6.503,4.616-16.136,9.684-20.21l122.401-98.382c6.581-5.288,11.544-15.643,11.544-24.086V8.17C480.357,3.657,476.7,0,472.187,0z
	 M464.017,29.957c0,3.521-2.695,9.144-5.439,11.35l-122.403,98.381c-9,7.234-15.787,21.398-15.787,32.946v76.207H191.613v-76.207
	c0-11.548-6.787-25.712-15.788-32.946L53.422,41.308c-2.745-2.206-5.439-7.828-5.439-11.35V16.34h416.034V29.957z"/>
<path d="M157.342,49.021h262.679c4.513,0,8.17-3.657,8.17-8.17s-3.657-8.17-8.17-8.17H157.342c-4.513,0-8.17,3.657-8.17,8.17
	S152.829,49.021,157.342,49.021z"/>
<path d="M91.98,49.021h32.681c4.513,0,8.17-3.657,8.17-8.17s-3.657-8.17-8.17-8.17H91.98c-4.513,0-8.17,3.657-8.17,8.17
	S87.467,49.021,91.98,49.021z"/>
<path d="M297.446,151.176h-82.892c-4.513,0-8.17,3.657-8.17,8.17s3.657,8.17,8.17,8.17h82.892c4.513,0,8.17-3.657,8.17-8.17
	C305.616,154.834,301.959,151.176,297.446,151.176z"/>
<g>
</g>
<g>
</g>
<g>
</g>
<g>
</g>
<g>
</g>
<g>
</g>
<g>
</g>
<g>
</g>
<g>
</g>
<g>
</g>
<g>
</g>
<g>
</g>
<g>
</g>
<g>
</g>
<g>
</g>
</svg>
