<?xml version="1.0" encoding="iso-8859-1"?>
<!-- Generator: Adobe Illustrator 19.0.0, SVG Export Plug-In . SVG Version: 6.00 Build 0)  -->
<svg version="1.1" id="Layer_1" xmlns="http://www.w3.org/2000/svg" xmlns:xlink="http://www.w3.org/1999/xlink" x="0px" y="0px"
	 viewBox="0 0 511.999 511.999" style="enable-background:new 0 0 511.999 511.999;" xml:space="preserve">
<path style="fill:#353535;" d="M493.134,493.206L493.134,493.206c-15.054,15.054-39.462,15.054-54.516,0l-95.993-95.993
	l54.516-54.516l95.993,95.993C508.188,453.744,508.188,478.152,493.134,493.206z"/>
<path style="fill:#262626;" d="M451.98,480.377l-95.993-95.992l41.421-41.421l-0.267-0.267l-54.516,54.516l95.993,95.993
	c15.054,15.054,39.462,15.054,54.516,0l0,0c2.063-2.063,3.833-4.306,5.331-6.672C483.727,495.024,464.579,492.977,451.98,480.377z"
	/>
<path style="fill:#F7CB4F;" d="M334.906,334.978c-6.135,6.135-12.587,11.758-19.295,16.887l36.18,36.18l36.182-36.182l-36.18-36.18
	C346.664,322.391,341.041,328.843,334.906,334.978z"/>
<path style="fill:#F4B008;" d="M328.588,340.983c-4.206,3.841-8.529,7.482-12.977,10.883l36.18,36.18l11.931-11.931L328.588,340.983
	z"/>
<circle style="fill:#F7CB4F;" cx="199.314" cy="199.334" r="191.831"/>
<path style="fill:#F4B008;" d="M334.956,63.689c-40.003-40.002-93.277-58.637-145.65-55.917
	c45.708,2.372,90.728,21.007,125.639,55.918c74.914,74.914,74.914,196.375,0,271.289c-34.911,34.911-79.933,53.546-125.639,55.918
	c52.373,2.718,105.647-15.916,145.649-55.918C409.871,260.064,409.871,138.604,334.956,63.689z"/>
<circle style="fill:#EFE7E4;" cx="199.314" cy="198.474" r="149.221"/>
<path style="fill:#D8D1D0;" d="M199.311,49.251c-3.363,0-6.697,0.122-10.005,0.341c77.745,5.148,139.215,69.829,139.215,148.877
	s-61.469,143.729-139.215,148.877c3.308,0.219,6.642,0.342,10.005,0.342c82.411,0,149.22-66.808,149.22-149.22
	S281.723,49.251,199.311,49.251z"/>
<path style="fill:#FFC89F;" d="M199.312,240.548L199.312,240.548c26.623,0,48.405-21.782,48.405-48.405v-41.654
	c0-26.623-21.782-48.406-48.405-48.406l0,0c-26.623,0-48.405,21.782-48.405,48.405v41.654
	C150.906,218.764,172.688,240.548,199.312,240.548z"/>
<path style="fill:#F7B081;" d="M199.312,102.083L199.312,102.083c-3.428,0-6.773,0.367-10.005,1.053
	c21.864,4.642,38.4,24.157,38.4,47.352v41.654c0,23.195-16.536,42.709-38.4,47.351c3.232,0.686,6.577,1.053,10.005,1.053
	c26.623,0,48.405-21.782,48.405-48.405v-41.654C247.717,123.866,225.935,102.083,199.312,102.083z"/>
<path style="fill:#68B9D8;" d="M199.311,347.689c37.131,0,71.09-13.565,97.202-36.006c-12.65-40.594-53.009-70.614-97.202-71.22
	c-44.192,0.604-84.551,30.625-97.201,71.22C128.222,334.124,162.181,347.689,199.311,347.689z"/>
<path style="fill:#3695B2;" d="M276.504,311.683c1.476,4.565,2.385,8.802,2.814,12.751c6.039-3.844,11.788-8.104,17.195-12.751
	c-12.65-40.594-53.009-70.615-97.202-71.22c-3.362,0.046-6.698,0.282-10.005,0.66C229.47,245.718,264.815,274.178,276.504,311.683z"
	/>
<path style="fill:#D3333C;" d="M210.939,269.133h-11.627h-11.626l-13.002-25.262c7.962-2.112,16.226-3.293,24.629-3.408
	c8.403,0.115,16.667,1.296,24.629,3.408L210.939,269.133z"/>
<path style="fill:#7F1B20;" d="M210.185,241.22l-14.255,27.913h3.381h11.626l13.002-25.262
	C219.443,242.679,214.846,241.794,210.185,241.22z"/>
<path style="fill:#F2464F;" d="M199.312,269.133h-11.626l-13.481,58.523l21.843,19.992c1.086,0.023,2.173,0.041,3.265,0.041
	c1.092,0,2.179-0.018,3.265-0.041l21.843-19.992l-13.481-58.523H199.312z"/>
<path style="fill:#D3333C;" d="M210.939,269.133h-11.627h-3.381l13.481,58.523l-17.604,16.113l4.239,3.88
	c1.086,0.023,2.173,0.041,3.265,0.041c1.092,0,2.179-0.018,3.265-0.041l21.843-19.992L210.939,269.133z"/>
<path d="M498.439,433.384l-95.992-95.993c-1.408-1.408-3.317-2.198-5.306-2.198c-1.99,0-3.898,0.79-5.306,2.198l-3.861,3.861
	l-26.288-26.288c55.466-77.803,48.335-186.82-21.423-256.579C302.613,20.735,252.555,0,199.312,0
	C146.067,0,96.01,20.735,58.361,58.384c-77.721,77.721-77.72,204.181,0,281.9c37.649,37.65,87.706,58.384,140.951,58.384
	c42.032,0,82.071-12.931,115.595-36.894l26.272,26.272l-3.861,3.861c-1.407,1.407-2.197,3.316-2.197,5.306s0.79,3.899,2.197,5.306
	l95.993,95.993c8.698,8.698,20.263,13.488,32.564,13.488c12.301,0,23.865-4.79,32.563-13.488
	c8.698-8.698,13.488-20.263,13.488-32.563C511.928,453.647,507.138,442.082,498.439,433.384z M68.972,329.673
	c-71.868-71.869-71.868-188.808,0-260.677c34.815-34.815,81.103-53.989,130.34-53.989c49.235,0,95.523,19.173,130.338,53.988
	c65.859,65.859,71.354,169.559,16.51,241.748c-0.11,0.126-0.223,0.248-0.326,0.382c-4.993,6.528-10.455,12.769-16.235,18.548
	c-5.777,5.778-12.018,11.239-18.547,16.233c-0.181,0.138-0.35,0.288-0.516,0.44c-31.854,24.204-70.529,37.316-111.226,37.316
	C150.076,383.66,103.788,364.487,68.972,329.673z M326.871,352.515c4.614-3.856,9.087-7.927,13.39-12.231
	c4.302-4.302,8.351-8.76,12.177-13.344l24.924,24.924l-25.571,25.571L326.871,352.515z M487.828,487.9c-0.001,0-0.001,0-0.001,0
	c-12.105,12.106-31.8,12.105-43.903,0l-90.688-90.688l3.861-3.861l36.183-36.182c0.003-0.003,0.006-0.007,0.009-0.01l3.851-3.851
	l90.688,90.688c5.863,5.864,9.093,13.659,9.093,21.952C496.921,474.24,493.691,482.036,487.828,487.9z"/>
<path d="M73.913,117.212c3.359,2.429,8.049,1.674,10.477-1.684C111,78.726,153.962,56.755,199.312,56.755
	c78.142,0,141.715,63.573,141.715,141.715c0,10.114-1.069,20.207-3.18,29.998c-0.872,4.051,1.704,8.043,5.755,8.916
	c0.533,0.115,1.065,0.17,1.589,0.17c3.459,0,6.569-2.406,7.327-5.924c2.333-10.829,3.517-21.985,3.517-33.16
	c0-86.417-70.305-156.722-156.722-156.722c-50.152,0-97.66,24.294-127.083,64.988C69.8,110.093,70.554,114.784,73.913,117.212z"/>
<path d="M210.479,354.789c0.653-0.046,1.306-0.1,1.957-0.153c1.037-0.087,2.073-0.186,3.107-0.294
	c1.33-0.136,2.654-0.293,3.977-0.463c0.404-0.053,0.808-0.105,1.212-0.161c21.392-2.918,41.847-10.208,60.329-21.539
	c0.359-0.22,0.718-0.439,1.077-0.661c0.84-0.524,1.681-1.05,2.513-1.593c1.083-0.703,2.156-1.424,3.223-2.154
	c0.293-0.201,0.594-0.389,0.886-0.592c0.339-0.236,0.665-0.487,1.002-0.725c0.945-0.668,1.884-1.348,2.815-2.038
	c0.701-0.519,1.395-1.046,2.086-1.576c0.761-0.584,1.518-1.175,2.269-1.773c0.713-0.568,1.424-1.14,2.126-1.719
	c0.787-0.65,1.571-1.305,2.346-1.971c0.013-0.011,0.023-0.024,0.036-0.036c19.507-16.739,34.57-37.906,43.957-62.001
	c1.505-3.861-0.406-8.211-4.268-9.715c-3.863-1.506-8.211,0.407-9.716,4.268c-7.17,18.407-18.009,34.924-31.836,48.74
	c-7.525-16.915-19.798-32.121-35.389-43.596c-10.109-7.44-21.39-13.122-33.187-16.867c14.616-10.096,24.218-26.957,24.218-46.025
	v-41.654c0-30.829-25.081-55.908-55.908-55.908c-30.829,0-55.908,25.081-55.908,55.908v41.654c0,19.068,9.603,35.93,24.218,46.025
	c-11.797,3.746-23.078,9.428-33.187,16.868c-15.568,11.457-27.829,26.637-35.357,43.522
	c-25.618-25.655-41.482-61.053-41.482-100.086c0-21.631,4.744-42.392,14.101-61.705c1.807-3.729,0.248-8.217-3.481-10.025
	c-3.729-1.808-8.218-0.248-10.024,3.482c-10.353,21.369-15.602,44.332-15.602,68.248c0,47.119,20.905,89.445,53.923,118.199
	c0.22,0.247,0.452,0.485,0.707,0.704c12.334,10.6,26.157,19.127,40.92,25.384c0.087,0.037,0.173,0.076,0.26,0.113
	c0.349,0.147,0.701,0.286,1.052,0.43c13.253,5.498,27.417,9.224,42.198,10.89c0.118,0.013,0.235,0.027,0.353,0.04
	c0.948,0.105,1.899,0.2,2.852,0.287c0.334,0.031,0.669,0.06,1.003,0.089c0.81,0.069,1.623,0.134,2.437,0.191
	c0.507,0.036,1.015,0.066,1.524,0.097c0.684,0.041,1.369,0.083,2.055,0.115c0.705,0.034,1.412,0.057,2.118,0.081
	c0.519,0.017,1.037,0.04,1.558,0.052c1.253,0.03,2.506,0.048,3.761,0.048c1.776,0,3.548-0.04,5.318-0.1
	c0.384-0.013,0.769-0.023,1.154-0.039C207.352,354.989,208.918,354.9,210.479,354.789z M193.656,276.637h11.31l11.158,48.438
	l-16.504,15.104c-0.095,0-0.189,0.005-0.284,0.005c-0.021,0-0.043,0-0.064,0c-0.09,0-0.18-0.003-0.27-0.003l-16.505-15.106
	L193.656,276.637z M188.182,248.822c0.141-0.019,0.281-0.042,0.421-0.06c0.957-0.127,1.919-0.232,2.882-0.329
	c0.245-0.024,0.49-0.056,0.735-0.078c0.904-0.084,1.811-0.146,2.719-0.203c0.282-0.018,0.565-0.044,0.847-0.059
	c0.719-0.039,1.441-0.054,2.162-0.076c0.454,0.011,0.906,0.035,1.363,0.035c0.457,0,0.908-0.024,1.363-0.035
	c0.721,0.022,1.443,0.037,2.162,0.076c0.282,0.015,0.564,0.042,0.846,0.059c0.908,0.057,1.816,0.119,2.72,0.203
	c0.244,0.023,0.488,0.054,0.733,0.078c0.963,0.097,1.926,0.202,2.884,0.329c0.14,0.018,0.279,0.041,0.419,0.06
	c0.779,0.107,1.555,0.231,2.33,0.358l-6.408,12.451h-14.1l-6.408-12.451C186.628,249.053,187.403,248.929,188.182,248.822z
	 M287.73,309.212c-0.857,0.684-1.721,1.362-2.595,2.028c-0.512,0.39-1.028,0.773-1.546,1.157c-0.809,0.599-1.626,1.19-2.449,1.773
	c-0.717,0.507-1.44,1.007-2.166,1.501c-0.613,0.417-1.23,0.827-1.848,1.235c-1.177,0.773-2.363,1.53-3.561,2.267
	c-0.256,0.158-0.512,0.316-0.769,0.472c-14.904,9.039-31.364,15.247-48.524,18.319l5.212-4.771c1.995-1.826,2.853-4.584,2.246-7.219
	l-12.865-55.846l8.877-17.247C254.882,261.956,277.77,282.849,287.73,309.212z M158.41,192.142v-21.171
	c36.637-3.087,50.213-28.242,50.213-28.242s8.85,23.352,31.59,27.816v21.598c0,22.028-17.507,40.036-39.338,40.862
	c-0.487-0.013-0.974-0.036-1.461-0.043h-0.001c-0.069-0.001-0.136-0.001-0.205,0l0,0c-0.487,0.007-0.974,0.029-1.461,0.043
	C175.917,232.178,158.41,214.171,158.41,192.142z M170.879,252.878l8.878,17.248l-12.865,55.845
	c-0.607,2.635,0.251,5.394,2.246,7.219l5.212,4.771c-7.458-1.335-14.785-3.257-21.907-5.752c-0.016-0.006-0.032-0.011-0.048-0.017
	c-0.888-0.312-1.774-0.633-2.656-0.962c-0.162-0.061-0.323-0.123-0.485-0.185c-0.762-0.288-1.524-0.58-2.281-0.881
	c-0.764-0.305-1.526-0.616-2.283-0.934c-0.169-0.071-0.339-0.137-0.507-0.208c-12.025-5.097-23.2-11.816-33.264-19.869
	C120.888,282.818,143.762,261.949,170.879,252.878z"/>
<g>
</g>
<g>
</g>
<g>
</g>
<g>
</g>
<g>
</g>
<g>
</g>
<g>
</g>
<g>
</g>
<g>
</g>
<g>
</g>
<g>
</g>
<g>
</g>
<g>
</g>
<g>
</g>
<g>
</g>
</svg>
