<?xml version="1.0" encoding="utf-8"?>
<svg version="1.1" id="Layer_1" xmlns="http://www.w3.org/2000/svg" xmlns:xlink="http://www.w3.org/1999/xlink" x="0px" y="0px"
	 viewBox="0 0 199 58.8" style="enable-background:new 0 0 199 58.8;" xml:space="preserve">
<style type="text/css">
	.st0{fill:#ED1C24;}
</style>
<g id="XMLID_4_">
	<path id="XMLID_135_" class="st0" d="M5.3,37.9c-0.2,0.1-0.5,0.1-0.8,0.2c-0.3,0-0.9,0.1-1.7,0.1c-0.8,0-1.3,0-1.6-0.1
		C1,38,0.9,37.9,0.9,37.7c0-0.4,1-1.6,3.1-3.5c1.4-1.3,2.5-2.4,3.4-3.2l0.8-0.8c4.7-4.6,7.1-7.2,7.1-7.9c0-0.2-0.1-0.4-0.1-0.5
		c-0.1-0.1-0.2-0.1-0.2-0.1c-0.7,0-1.5,0.3-2.5,0.9S9.9,24.4,8.1,26c-0.5,0.4-1,0.9-1.7,1.5c-0.9,0.8-1.4,1.2-1.7,1.2
		c-0.2,0-0.3-0.1-0.4-0.2C4.1,28.4,4,28.3,4,28.1c0-0.3,0.9-1.3,2.6-2.8c0.3-0.3,0.6-0.5,0.7-0.7c2.1-1.8,3.9-3.1,5.3-4
		s2.6-1.2,3.7-1.2c0.8,0,1.3,0.2,1.7,0.7c0.4,0.5,0.6,1.2,0.6,2.2c0,0.2,0,0.4,0,0.6c0,0.2-0.1,0.6-0.1,1c3.2-2,5.4-3.3,6.5-3.8
		s2.1-0.8,2.9-0.8c0.6,0,1.1,0.3,1.5,0.8c0.4,0.5,0.5,1.2,0.5,2.2c0,0.2,0,0.4,0,0.6c0,0.2,0,0.6-0.1,1c2.9-1.8,4.9-3,6.2-3.6
		c1.3-0.6,2.3-0.9,3.1-0.9c0.8,0,1.5,0.2,2,0.7c0.5,0.5,0.7,1.1,0.7,1.9c0,1.4-1.5,3.6-4.4,6.5l-0.1,0.1c-0.5,0.5-1.2,1.1-2.1,2
		c-2.9,2.7-4.3,4.3-4.3,4.9c0,0.3,0.1,0.5,0.3,0.6c0.2,0.2,0.5,0.2,0.8,0.2c1,0,2.5-0.5,4.6-1.5c2-1,4.1-2.3,6.4-4.1
		c1-0.7,2-1.5,3.1-2.5c1.1-0.9,1.7-1.4,1.9-1.4c0.2,0,0.3,0.1,0.4,0.2c0.1,0.1,0.1,0.3,0.1,0.5c0,0.4-1.3,1.7-3.9,3.8l-0.2,0.2
		c-2.6,2-5,3.6-7.4,4.9c-2.4,1.2-4.2,1.8-5.5,1.8c-1,0-1.9-0.3-2.5-0.9c-0.7-0.6-1-1.3-1-2.3c0-1.1,0.4-2.4,1.3-3.7
		c0.9-1.3,2.1-2.7,3.7-4.1c0.5-0.4,1.2-1,2.1-1.8c2.2-1.8,3.3-2.9,3.3-3.2c0-0.2-0.1-0.3-0.3-0.4c-0.2-0.1-0.4-0.2-0.6-0.2
		c-1.3,0-3.8,1.5-7.6,4.4s-8.1,6.9-13,11.8c-0.2,0.1-0.5,0.1-0.8,0.2c-0.3,0-0.9,0.1-1.6,0.1c-0.8,0-1.4,0-1.7-0.1s-0.4-0.2-0.4-0.4
		c0-0.4,1-1.6,3.1-3.5c0.8-0.8,1.4-1.3,1.9-1.8c3.4-3.2,5.8-5.5,7.3-7.1c1.5-1.6,2.2-2.5,2.2-2.8c0-0.2-0.1-0.4-0.2-0.6
		c-0.2-0.2-0.3-0.2-0.5-0.2c-1.3,0-3.9,1.5-7.7,4.5C14.3,29.2,10.1,33.1,5.3,37.9z"/>
	<path id="XMLID_137_" class="st0" d="M61.2,39.1c-5.1,6.4-9.4,11.2-12.9,14.4s-6.2,4.8-8,4.8c-1,0-1.8-0.3-2.4-0.9
		c-0.6-0.6-0.9-1.5-0.9-2.5c0-2.6,1.9-5.4,5.6-8.4c3.7-3.1,8.7-5.8,14.8-8.1l1.5-2.5c-1.2,0.8-2.3,1.4-3.5,1.8
		c-1.2,0.4-2.3,0.6-3.4,0.6c-1.1,0-1.9-0.3-2.6-0.9c-0.7-0.6-1-1.3-1-2.3c0-1.1,0.4-2.4,1.3-3.7s2.1-2.7,3.7-4.1
		c0.4-0.4,1.1-0.9,1.8-1.6c2.3-1.9,3.5-3.1,3.5-3.4c0-0.2-0.1-0.3-0.2-0.4c-0.2-0.1-0.3-0.2-0.5-0.2c-0.4,0-0.9,0.2-1.7,0.5
		c-0.8,0.4-1.6,0.8-2.5,1.5c-1.4,1-2.8,2.1-4.2,3.3s-2.2,1.8-2.4,1.8c-0.1,0-0.3-0.1-0.4-0.2c-0.1-0.1-0.2-0.3-0.2-0.4
		c0-0.2,0.3-0.7,1-1.4c0.7-0.7,1.6-1.4,2.7-2.3c2.2-1.7,4-2.9,5.6-3.7c1.6-0.8,2.9-1.2,4-1.2c0.8,0,1.3,0.2,1.8,0.7
		c0.4,0.4,0.7,1.1,0.7,1.8c0,0.8-0.3,1.7-0.9,2.6c-0.6,0.9-1.8,2.2-3.7,4c-0.7,0.6-1.5,1.4-2.6,2.5c-2.5,2.4-3.8,3.8-3.8,4.4
		c0,0.3,0.2,0.5,0.4,0.7c0.3,0.2,0.6,0.3,1,0.3c0.8,0,1.7-0.3,2.8-0.8c1-0.5,2.2-1.3,3.4-2.4l10.2-8.8c1-0.9,2-1.7,3-2.5
		c1-0.8,1.9-1.5,2.9-2.1H76c0.6,0,1,0,1.3,0.1c0.2,0.1,0.4,0.3,0.4,0.5c0,0.2-1.8,2.1-5.4,5.6s-7,7.3-10.3,11.4
		c2.3-0.4,4.4-1,6.5-1.8c2-0.9,4.2-2,6.4-3.6c1.4-1,2.8-2.1,4.2-3.3c1.4-1.2,2.2-1.8,2.4-1.8c0.2,0,0.3,0.1,0.4,0.2
		c0.1,0.1,0.2,0.3,0.2,0.5c0,0.3-0.5,0.9-1.5,1.8c-1,0.9-2.3,2-4,3.2c-2.5,1.8-5,3.3-7.5,4.3S64,38.7,61.2,39.1z M55.9,40.7
		c-5.4,2.4-9.6,4.8-12.6,7.2s-4.5,4.7-4.5,6.6c0,0.6,0.2,1.2,0.5,1.6c0.3,0.4,0.7,0.6,1.1,0.6c1.2,0,3.1-1.3,5.5-3.8
		C48.4,50.4,51.8,46.3,55.9,40.7z"/>
</g>
<g id="XMLID_1_">
	<path id="XMLID_2_" d="M82.4,2.1H86v32.4h13.8V38H82.4V2.1z"/>
	<path id="XMLID_141_" d="M127.3,29.2l2.9,1.5c-0.9,1.9-2,3.4-3.3,4.5c-1.2,1.1-2.6,2-4.2,2.6c-1.5,0.6-3.3,0.9-5.3,0.9
		c-4.3,0-7.7-1.4-10.2-4.3c-2.4-2.8-3.7-6.1-3.7-9.6c0-3.4,1-6.4,3.1-9c2.6-3.4,6.1-5,10.5-5c4.5,0,8.1,1.7,10.8,5.2
		c1.9,2.4,2.9,5.5,2.9,9.1h-23.9c0.1,3.1,1.1,5.6,3,7.6s4.3,3,7.1,3c1.4,0,2.7-0.2,3.9-0.7c1.3-0.5,2.4-1.1,3.3-1.9
		C125.3,32.2,126.2,31,127.3,29.2z M127.3,22.1c-0.5-1.8-1.1-3.3-2-4.4c-0.9-1.1-2-2-3.5-2.6c-1.4-0.7-2.9-1-4.5-1
		c-2.6,0-4.8,0.8-6.7,2.5c-1.4,1.2-2.4,3.1-3.1,5.5H127.3z"/>
	<path id="XMLID_144_" d="M163.9,11.5V38h-3.4v-4.6c-1.4,1.7-3,3.1-4.8,3.9s-3.7,1.3-5.8,1.3c-3.8,0-7-1.4-9.6-4.1
		c-2.7-2.7-4-6-4-9.9c0-3.8,1.3-7.1,4-9.8c2.7-2.7,5.9-4.1,9.7-4.1c2.2,0,4.2,0.5,5.9,1.4c1.8,0.9,3.3,2.3,4.7,4.2v-4.9H163.9z
		 M150.2,14.1c-1.9,0-3.7,0.5-5.3,1.4c-1.6,0.9-2.9,2.2-3.8,3.9c-1,1.7-1.4,3.5-1.4,5.4c0,1.9,0.5,3.7,1.4,5.4c1,1.7,2.2,3,3.9,4
		c1.6,1,3.4,1.4,5.2,1.4c1.9,0,3.6-0.5,5.3-1.4s3-2.2,3.9-3.8c0.9-1.6,1.4-3.4,1.4-5.4c0-3.1-1-5.6-3-7.7
		C155.7,15.1,153.2,14.1,150.2,14.1z"/>
	<path id="XMLID_147_" d="M198.1,1.2V38h-3.4v-4.6c-1.4,1.7-3,3.1-4.8,3.9c-1.8,0.9-3.7,1.3-5.8,1.3c-3.8,0-7-1.4-9.6-4.1
		c-2.7-2.7-4-6-4-9.9c0-3.8,1.3-7.1,4-9.8c2.7-2.7,5.9-4.1,9.7-4.1c2.2,0,4.2,0.5,5.9,1.4c1.8,0.9,3.3,2.3,4.7,4.2V1.2H198.1z
		 M184.4,14.1c-1.9,0-3.7,0.5-5.3,1.4c-1.6,0.9-2.9,2.2-3.8,3.9c-1,1.7-1.4,3.5-1.4,5.4c0,1.9,0.5,3.7,1.4,5.4c1,1.7,2.2,3,3.9,4
		c1.6,1,3.4,1.4,5.2,1.4c1.9,0,3.6-0.5,5.3-1.4s3-2.2,3.9-3.8c0.9-1.6,1.4-3.4,1.4-5.4c0-3.1-1-5.6-3-7.7
		C189.9,15.1,187.4,14.1,184.4,14.1z"/>
</g>
</svg>
